<svg xmlns="http://www.w3.org/2000/svg" width="349" height="51"><g fill="none" fill-rule="nonzero"><path fill="#D0D2D3" d="M133.9 32.3V36l-1.4 2.6-3.5.4 1.2-2v-4.7h3.7zM18 33V3.8l1.4-2.3L23 1l-1.4 2.1v16l-1.9 10L18 33zm69 15.4l2.9-2-1-2.4 3 .3 1 .3.1 4.4-6-.6zM68.5 36.7v-2.4h15.8v7c-2-2.4-7-3.4-7-3.4l-8.8-1.2z"/><path fill="#959595" d="M49 8h-1V4.8c0-2 1.7-3.8 3.8-3.8h48.4c2 0 3.8 1.7 3.8 3.8V8h-1V5c0-1.5-1.4-3-3-3H52c-1.5 0-3 1.5-3 3v3zM50 33.2a3 3 0 0 0 2 .9h48c1 0 2.1-.8 2.5-1.8h1.2c-.5 1.6-2 2.7-3.8 2.7H52a3.7 3.7 0 0 1-3.6-2.7h1.2c0 .3.3.6.5.9z"/><path fill="#D0D2D3" d="M52 8V5.1c0-.6.5-1 1.1-1h7c5 0 10.4.4 15.4 0 .5-.1 4.1 0 5.4.1l3.5-.2h15.7c.6 0 1 .5 1 1.1V8h-1l-.1-3H53v3h-1z"/><path fill="#959595" d="M69.1 35.3h14.6v6.6l.1.4c.2.2.6 0 .7 0 .6-.5.3-1.9.3-2.5v-5.5H68V42c0 .3.5.5.8.4.4-.2.3-.6.3-1v-6.2z"/><path fill="#D0D2D3" d="M103.7 43h-.6c-.7 0-1.5.2-2.3.5 2 .8 3.4 2.7 3.4 5h4.9c0-3-2.5-5.4-5.4-5.4"/><path fill="#D0D2D3" d="M97.8 48.5v-1.7l4.6-2.6-1.6-.7-3.6 2.3-1.2 2.4z"/><path fill="#959595" d="M96.6 48h12a4.9 4.9 0 0 0-5-4.4h-.5c-2.7 0-6 2-6.5 4.3zm13 1H95.6v-.5c0-3.5 4.5-6 7.6-6h.6a6 6 0 0 1 6 6v.5z"/><path fill="#D0D2D3" d="M55.4 43H53a1 1 0 0 0-1.1 1v.6h4.4v-.5c0-.6-.5-1.1-1-1.1m5.6 0h-2.2a1 1 0 0 0-1.1 1v.6H62v-.5c0-.6-.5-1.1-1-1.1m23.7 0h-2.2a1 1 0 0 0-1.1 1v.6h4.4v-.5c0-.6-.5-1.1-1-1.1m5.6 0h-2.2a1 1 0 0 0-1.1 1v.6h4.4v-.5c0-.6-.5-1.1-1-1.1m-11.4 0H64.5a1 1 0 0 0-1.1 1v.6h16.9v-.5c0-.6-.5-1.1-1.1-1.1"/><path fill="#959595" d="M131 32.3v4.6c0 1.5-1.3 2.7-2.7 2.7l-.7-.1-17.5-4.3c-1.2-.3-2-1.4-2-2.6v-.3h1v.3c0 .7.6 1.4 1.3 1.6l17.5 4.3a1.6 1.6 0 0 0 2-1.6v-4.6h1zm-1-29.1c0-.5-.3-.9-.6-1.2-.3-.3-.8-.4-1.2-.4l-5.7.3-5 .2c-1.7.1-3.5.4-5.2.4-1.3 0-3.3-.2-3.3 1.6V8h-1V4c0-1.4 1.2-2.6 2.7-2.6L128 .5a2.7 2.7 0 0 1 2.9 2.7V8h-1V3.2zM50 47.9L93 48v-2.4c0-.3-.2-.5-.5-.5H87c-3.7 0-7.3-.3-11-.3-1.7 0-3.4.3-5 .3H50.7c-.3 0-.7.5-.7.8v2zM94.1 49H49.1v-3.4c0-.8.7-1.5 1.6-1.5h41.9c.9 0 1.6.7 1.6 1.5V49z"/><path fill="#959595" d="M132.9 32.3h1.1v3.6c0 2-1.5 3.7-3.3 3.7H128v-1.1h2.7c1.2 0 2.2-1.2 2.2-2.6v-3.6zm.1-28c0-1.5-1-2.7-2.3-2.7H128V.5h2.7c1.8 0 3.3 1.7 3.3 3.7V8h-1V4.3z"/><path fill="#D0D2D3" d="M111 8V5.8c0-.5.5-1 1-1l14-.8c.5 0 1 .5 1 1v2h-1V5l-14 .8V8h-1zm2 24.3h3.3l5.5 1.3 4.5 1.2v-2.5h1.1v2.5a1 1 0 0 1-1.4 1l-13-3.5z"/><path fill="#959595" d="M24 39.6h-2.7c-1.8 0-3.3-1.7-3.3-3.7V4.2c0-2 1.5-3.7 3.3-3.7H24v1h-2.7c-1.2 0-2.2 1.3-2.2 2.7v31.7c0 1.4 1 2.6 2.2 2.6H24v1z"/><path fill="#959595" d="M44.1 32.3v.3c0 1.2-.8 2.3-2 2.6l-17.5 4.3h-.7c-.6 0-1.2-.1-1.7-.5-.6-.5-1-1.3-1-2.1L21 3.2c0-.7.5-1.5 1-2 .6-.5 1.3-.7 2-.7l5 .3h2.6c.6.1 1.3.3 2 .3l7.5.2h.4C43 1.5 44 2.6 44 4l.2 4h-1V4c0-.8-.8-1.5-1.6-1.6L24 1.6c-.5 0-.9.1-1.2.4-.3.3-.8 1-.8 1.4 0 6 .2 11.9 0 17.9 0 1.7.2 3.1 0 4.8-.1 1.7.3 3.7.3 5.4V37a1.6 1.6 0 0 0 2 1.5l17.5-4.3c.7-.1 1.2-.8 1.2-1.5v-.3h1.1z"/><path fill="#D0D2D3" d="M40.1 32.3L26.4 36a1 1 0 0 1-1.4-1V24c0-1.8.2-3.7 0-5.5V5.3c0-.6.5-1 1-1h.1l13.9.6c.6 0 1 .5 1 1.1v2h-1V6l-14-.8V35l10-2.7h4.1zm-5.5 9.4c-1.4-2.8-8.2-1.6-8.2-1.6l-.1-1.2 8.3-1.6v4.4z"/><path fill="#959595" d="M23.6 47.9h14.8c-1.4-1-2.9-2-4.4-2.7l-7.9 1c-.8.5-1.7 1-2.5 1.7zm-1 0v.5-.5zm17 1h-17c-.6 0-.7-.3-.8-.4 0-.4-.2-.9 3.9-3.3h.2L34 44h.4c3.8 2 5.7 3.5 5.7 4.3 0 .3-.3.5-.6.5z"/><path fill="#959595" d="M25.8 46.7v-8h1v6.8l7.1-1v-7.8H35v8.8z"/><path fill="#D0D2D3" d="M118.6 41.7c1.3-2.8 8.1-1.6 8.1-1.6l.2-1.2-8.3-1.6v4.4z"/><path fill="#959595" d="M114.3 47.9h11.9c.5 0 2.5-.3 3 0l-2.6-1.6-7.9-1c-1.5.7-3 1.6-4.4 2.6m15.8 0v.5-.5m0 1h-17a.5.5 0 0 1-.5-.5c0-.8 2-2.2 5.7-4.2h.4l8.1 1h.2c4 2.5 4 3 3.9 3.3 0 .1-.2.5-.8.5m-11-12.6h-1v2.9c0 .6-.3 4 .3 4 1.8 0 .2-7 .7-7"/><path fill="#959595" d="M127 38.6h-1v2.8c0 .6.3 3.6-.2 3.9-1 .6.8 1.4 1.2.2.3-.7 0-2 0-2.7v-4.2z"/><path fill="#1D3F6A" d="M31.9 27c0-.4.1-.7.4-1l1-.7c0 1.7 1 2.5 3.1 2.5 1.6 0 3.5-.5 5.6-1.6.8-.4 3.8-1.9 3.3-3-.2-.4-.7-.5-1-.6l-1.9-.4-5.2-1.3-2.7-.6-.9-.5c-.5-.4-.8-.8-.8-1.1 0-1.3.8-2.5 2.5-3.5a22.3 22.3 0 0 1 9.1-2.8h.5l.7.2c.5.1.7.4.6.7 0 .7-1 1.2-3.3 1.5a30 30 0 0 0-5.5 1.2c-.7.3-1.2.7-1.5 1-.3.3-.5.8-.5 1.2l.6.3 1.4.4 8.4 2.6c1 .3 1.9.3 1.9 1.6 0 1-.5 2-1.6 2.9a15 15 0 0 1-5 2.6c-1.8.6-3.3.9-4.3.9a8 8 0 0 1-4.3-1.5c-.4-.3-.6-.7-.6-1zm19.4-6.4c0 4.4 2 6.6 6.2 6.6 2 0 3.6-.6 4.9-2a7 7 0 0 0 1.9-5c0-1.8-.8-3.5-2.3-4.5a8.2 8.2 0 0 0-4.8-1.4c-1.6 0-3 .6-4.2 1.9a6.2 6.2 0 0 0-1.7 4.4zm-1.5 4.1a9.3 9.3 0 0 1-.6-3.5c0-1.4.1-2.6.5-3.7.4-1 1-2 1.7-2.7a7.5 7.5 0 0 1 5.7-2.4c2.4 0 4.3.6 5.9 1.8a7 7 0 0 1 2.6 5.8c0 3-.7 5.4-2 6.8-1.4 1.5-3.4 2.3-6.2 2.3-4 0-6.4-1.5-7.6-4.4zm19 0c-1 0-1.4-.3-1.4-.6s.1-.6.5-.9l1-1c0-1.1-.2-2.4-.5-3.8a84.7 84.7 0 0 1-.9-5.3c0-.6 0-1 .3-1.2.2-.2.4-.3.8-.3.3 0 .5 0 .6.2l.2.4.1.5.1.4c0 .4.4.6.8.6 1.2 0 2.3-.2 3.5-.4l3.4-.6c1-.1 3.1-.9 4.1-.6.2 0 .3.3.3.4.4 1.1.7 1.4-.4 1.7-1 .2-2 .1-2.9.2-1.5.1-3 .2-4.6.5-.6 0-3.7.3-3.7 1.4 0 1.6.2 3.2.6 4.8 0 .2.1.3.3.3 1 0 2 0 3-.3.3 0 2.2-.7 2.5-.3v.3l.2.8v.3l-.3.2-2.4.4c-1.8.3-2.7.6-3 1l-.3 5.6c-.2.2-.4.3-.7.3l-1-.1h-.2v-4.8zm27.7-9l-2.3-.1c-.7 0-1.4 0-2 .2l-.3 2.8a116.9 116.9 0 0 0-.5 10.6l-2.4.3.8-14-5.5-.3c-.2 0-.3 0-.4-.3v-.7c0-.2 0-.4.2-.7.1-.2.3-.3.5-.3l3.8.2c2.4.3 4.4.4 6 .4h1.7a20 20 0 0 0 3.7-.5c.3 0 .5.5.6 1.4v.4c-1.2.4-2.4.6-3.9.6zm24.6 9c1-3 2-8.5 3-16.6 1.2 0 1.7.4 1.8 1.2v.4l-1.5 10.9a99 99 0 0 1-1.8 8.5c-.6.4-1.1.5-1.5.2a2 2 0 0 1-.4-.7l-.4-1L119 25l-1.4-3.3-1.1-2.2c-.8-1.6-1.5-2.5-2-2.8a63.9 63.9 0 0 0-4 11l-.6 1.7-1.7-.1-6.5-16.3v-.3l.1-.2c0-.2.2-.2.3-.3l1-.2.5.2.4.5c0 .2 0 .4.2.6l.3.9.6 1.5a172.6 172.6 0 0 0 4 9l3.7-9.6.9-1.8.4-.5c.8 0 2 1.8 3.8 5.4.5 1 1 1.9 1.3 2.8l2 3.7zm13-11.6c-.2 1.2-.5 2.4-1 3.5a97 97 0 0 1-1.9 4.6c1.2 0 2.7-.3 4.4-1l1.2-.6c-.8-3.8-1.7-6-2.7-6.5zm6.5 6h.7l.9.1c.2.1.4.3.4.7 0 .7-.3 1-1.3 1a51.6 51.6 0 0 1-1.4.2l.6 1.8.6 2a15 15 0 0 0 1.8 3.6c-.4.6-1 1-1.7 1.4l-3.7-8.4-7 1.9-.3 1.2c-.5 2.1-1 3.6-1.7 4.5-.1.1-.3.2-.7 0-.5-.2-.8-.4-.8-.6l.6-1.6 1-3.2 1.2-3.3L131 17l1-3a57.3 57.3 0 0 0 1-3.5c.2-.4.6-.7 1.3-.7.8.5 1.3 1 1.8 1.8l1 2.3.8 2.5c.3.9.7 1.6 1.2 2.3.1.3.4.4.7.4h.8zm14.6-6h-1.7c-3.9 0-6.2.5-6.7 1.4-.2.3-.3.6-.3 1v1c.1.9.3 1.4.7 1.7h1l1.4-.4a39 39 0 0 0 3.8-1.6c2-1 3-1.8 3-2.4 0-.3-.4-.6-1.2-.7zm-8.8-.3c1-1 2.7-1.5 5.2-1.5 1.6 0 2.9.1 4 .5 1 .3 1.8.7 2.3 1 .5.4.8.8.8 1.3 0 1-1.1 2-3.3 3l-2.6 1a126.7 126.7 0 0 0-5 2.1c0 .1 0 .2.2.3l.4.3 1.2.7 2.2 1.2a293.5 293.5 0 0 1 9 5.7l.3.6c0 .3 0 .4-.2.5l-.5.2a2 2 0 0 1-.6 0h-.5c-.4 0-1-.3-2.2-1.1l-2.8-2.1A60.5 60.5 0 0 0 147 22v6.4c0 .4-.3.6-.8.6h-.3c-.4 0-.6-.2-.8-.6-.3-.6-.4-1.7-.4-3.3l.1-5.7c0-2.8-.1-5.2-.3-7.3.4-.8.9-.7 1.5 0l.3.6zm25-1.2c1.8 0 3 .1 3.5.4v1.3l-1.9.2h-2.6c-2.6 0-4.3.2-5.2.4-.3 1.5-.5 2.6-.4 3.1v1.3l.1 2.6c1.2 0 2.5-.2 4-.4.9-.1 3.1-.9 3.7 0 .2.2.3.6.3 1v.3h-.3c-2.5.2-5 .6-7.5 1l.1 4.6c1.8 0 3.5-.1 5.3-.3a41.7 41.7 0 0 1 6.1 0l.1.2c0 .5 0 1.2-.4 1.3h-.4c-2.7 0-5.3.4-8 .4l-4.8.4V11.6l2.6.3 5.8-.2zm26.4 0c1.8 0 3 .1 3.5.4v1.3l-2 .2h-2.5c-2.6 0-4.3.2-5.3.4-.3 1.5-.4 2.6-.4 3.1v1.3l.2 2.6c1.1 0 2.5-.2 4-.4l3.5-.5a21 21 0 0 1 2.6-.1v1.5l-10 1.4.2 4.6 5.3-.3 4-.4 3-.1c0 .4-.1.7-.3 1-.4.6-.8.8-1.1.6l-8.2.8-4.8.4V11.6c.5.2 1.3.3 2.6.3l5.7-.2zm22.4 8.4c0 5.4-.2 8.6-.7 9.5l-1.9-.1c-1.4-2.5-3-4.9-4.8-7.2l-2.6-3.6-2.4-3.6a55 55 0 0 0-.5 9.6l-.1 4.6c-.3.3-.7.5-1 .5a2 2 0 0 1-1-.1.4.4 0 0 1-.1-.4v-1a200.7 200.7 0 0 0 .5-17l.9-.8h.7l1 1.1 1.7 2.5c2.4 3.6 5 7.1 7.5 10.6l.5-13.4c.2-.4.4-.6.6-.7.2-.2.4-.2.7-.2.6 0 1 .5 1 1.7v8zM234 30.8v-5.1a58 58 0 0 1-3.5 2.4 8 8 0 0 1-3.9 1.3c-1.3 0-2.5-.5-3.5-1.6-1-1-1.5-2.4-1.5-3.8.1-1.5.4-3 1-4.5 1-3.3 2.7-5.7 5-7.2a7.5 7.5 0 0 1 4.2-1.1H232.6c.8 0 1.2.3 1.1 1-1.3 0-2.7.4-3.9 1a11.4 11.4 0 0 0-5.3 6.1c-.4 1.4-.7 2.8-.7 4.3 0 1.4.3 2.4 1 3 .7.7 1.6 1 2.7 1 1 0 2.2-.4 4-1.3.8-.4 1.6-1.1 2.3-1.9.2-.3.4-.7.4-1v-4.2l-3.7.6-3.3.7-.3-.1a.4.4 0 0 1-.2-.3c0-.3.4-.7 1.2-1.3a696.2 696.2 0 0 0 10.2-1.6c.5 0 .8.3.8 1l-2.2 1c-.3 1-.5 3.2-.5 6.4v5.2c-.4.3-1 .4-1.4.4-.5 0-.8 0-.9-.4zm8.2-1.8c0 .3-.2.5-.6.5-.3 0-.7-.2-1.1-.5a171.1 171.1 0 0 1-.2-11.8l.2-3.6c.5-.3.9-.5 1.2-.5.3 0 .5.2.5.5V29zm16.6-5.3a34.1 34.1 0 0 1-.3 5.7c-.3.3-1 0-1.4 0a79.7 79.7 0 0 0-4.9-7l-2.7-3.8c-1-1.2-1.9-2.6-2.7-3.9-.4 1.6-.4 5.3-.4 10l-.1 4.5c-.4.3-.7.5-1.1.5a2 2 0 0 1-.8-.1c-.2-.1-.3-.3-.3-.4l.1-.9a217 217 0 0 0 .5-12c0-.6-.4-6.8 1.6-5.5l1 1 1.7 2.5c2.4 3.5 5 7 7.5 10.3l.5-13 .6-.8.7-.2c.6 0 1 .6 1 1.7l-.1 1c0 1-.5 9.6-.4 10.4zm10.9-12l1.6-.1 1.5-.4h.1v.1a5 5 0 0 1 .1 1.8v.1c-.6.3-1.2.3-1.8.3h-2.6c-2.5 0-4.3.2-5.2.4a15.8 15.8 0 0 0-.4 4.4l.1 2.6c1.2 0 2.5-.2 4-.4l1.3-.2c.2 0 .6.1.8 0l.1 1.2c0 .7-1 .6-1.6.7l-4.4.6.2 4.6c1.7 0 3.5-.1 5.2-.3l4-.4 3-.1c0 .4 0 .7-.3 1-.4.6-.8.8-1 .6l-8.3.8-4.8.4.1-17.9c.8.2 1.7.3 2.5.3l5.8-.2zm16.8 0c1.7 0 2.9.2 3.4.5v1.4h-4.5c-2.6-.1-4.3 0-5.3.2l-.5 3V20.7c1.3 0 2.7 0 4-.2l2.4-.3c.3 0 .5-.1.7.1v1.1c0 .5 0 .6-.5.6l-3 .2-3.5.4v4.6h5.2l4.1-.3c.7 0 1.6-.3 1.6.6 0 .4.3.9 0 1.2v.1h-5.1l-3.2.1-4.9.3.2-4.5.4-8.4.1-2.6v-1l.1-.6c.2-.3.8-.4 1-.5.5-.2 1 0 1.5 0h5.8zm17 1.4h-1.7c-4 0-6.2.5-6.8 1.4-.2.3-.2.6-.2 1v1c.1.9.3 1.4.6 1.7h1l1.4-.4a39 39 0 0 0 3.9-1.6c2-1 3-1.8 3-2.4 0-.3-.5-.6-1.3-.7zm-8.8-.3c1-1 2.7-1.5 5.1-1.5 1.6 0 3 .1 4 .5 1 .3 1.8.7 2.3 1 .6.4.8.8.8 1.3 0 1-1 2-3.3 3a36.5 36.5 0 0 1-5.4 2.1l-2 1v.3l.5.3 3.3 2c2.9 1.6 5.7 3.3 8.5 5.1l.5.5c.2.2.4.4.4.6 0 .3-.1.4-.3.5l-.5.2a2 2 0 0 1-.6 0h-.5c-.3 0-1-.3-2.1-1.1l-2.9-2.1a60.5 60.5 0 0 0-7-4.4v6.4c0 .4-.4.6-1 .6h-.3c-.3 0-.6-.2-.8-.6-.2-.6-.3-1.7-.3-3.3v-5.7a68 68 0 0 0-.3-7.3c.4-.8 1-.7 1.5 0l.4.6zm18.6 16.1c0 .4-.2.6-.6.6-.3 0-.7-.2-1.1-.6-.3-.5-.4-2-.4-4.1 0-3.2 0-6.3.2-9.4l.2-4.2c.4-.4.9-.6 1.2-.6.3 0 .5.2.5.6v17.7zm16.6-9.5l-.4 7.3c0 .5.4 2.4-.2 2.8-.2.1-1.4 0-1.5-.1-1.4-2.5-3-5-4.8-7.3l-2.6-3.7c-.9-1.2-1.7-2.4-2.4-3.7-.4 1.7-.5 4.9-.5 9.8l-.1 4.7c-.4.3-.7.5-1.1.5l-.8-.1c-.2-.1-.3-.3-.3-.5l.1-.9a232.2 232.2 0 0 0 .5-17.4l.9-.8h.7l1 1.5L320 14c2.5 3.9 5 7.4 7.5 10.8l.5-14 .5-.7c.3-.2.5-.2.8-.2.6 0 1 .5 1 1.7 0 2.6-.3 5.2-.5 7.8zm14.5 10.2a.4.4 0 0 1-.3-.2c-.2-.4 0-1.2 0-1.6v-2.1l-3.4 2.4a8 8 0 0 1-4 1.3c-1.3 0-2.5-.6-3.4-1.6-1-1-1.5-2.4-1.5-3.8.1-1.5.4-3 .9-4.5 1-3.3 2.8-5.7 5.2-7.2a7.5 7.5 0 0 1 4.1-1.1H342.8c.8 0 1.2.3 1.1 1-1.4 0-2.7.4-3.9 1-1.2.6-2.3 1.4-3.2 2.5-.9 1-1.6 2.2-2 3.6-.6 1.4-.8 2.8-.8 4.3 0 1.4.3 2.4 1 3 .7.7 1.6 1 2.7 1 1 0 2.2-.4 3.9-1.3 1-.5 1.7-1.1 2.3-1.9.3-.3.4-.7.4-1v-4.2l-3.6.6-3.3.7-.3-.1a.4.4 0 0 1-.2-.3c0-.3.4-.7 1.2-1.3a627 627 0 0 0 10.2-1.6c.5 0 .8.3.8 1l-2.2 1c-.3 1-.5 3.2-.5 6.4V27c0 .6.3 2-.1 2.3-.2.1-.5 0-.8 0l-1 .3z"/><path fill="#FFF" d="M28 28v-.2a2 2 0 0 0-2-1.8H9.6a2 2 0 0 0-1 .3c-.6.3-.7 1-.7 1.6v.5c0 .1 0 .2-.2.2-.3.3-.8.4-1.1.4-1.6 0-3.4.2-4.6 1.2-1.1.8-1.8 2-2 3.4-.2 1.3 0 2.6 0 3.8 0 .7-.2 1.5 0 2.2.2 1.1.6 2.2 1.2 3.1l.4.5c.5.6 1.2 1.1 2 1.3.5.2 1 .2 1.5.2h2.5c.1 1.8 1 3.5 2.5 4.4 1.5.9 3.3 1 5 .9 4 0 12.2.6 12.6-4l.1-1.3V28z"/><path fill="#D0D2D3" d="M21 27a1 1 0 0 1 1 1.1c0 2.9.2 5.8 0 8.6v3c0 2 .6 4.4-.4 6.4-.9 1.8-3.1 3-5 3H23c2.4 0 4-2 4-4.4V28.1c0-.6-.5-1-1-1h-5.2z"/><path fill="#2B2B2B" d="M26 43.8c0 .8 0 1.4-.2 2-.2.5-.5 1-1 1.4-1 .8-2.4.8-3.6.8h-4.7c-1.1 0-1.9.2-3 0-1 0-1.9-.3-2.6-1-.5-.3-.9-.9-1-1.5-.1-.7-.3-1.6-.9-2.1-.4-.5-1.3-.4-1.8-.4h-2c-2 0-3.2-1.5-3.2-3.4v-5.4c0-2 1.8-3.2 3.2-3.2H8v1H5.2C4 32 3 33 3 34.1V40c0 .4.2 1 .6 1.3.4.3 1 .7 1.5.7h3.7c.7.2.8.9 1 .9.3 0 .1-2.2.2-3V28.3l.2-.2h7.6c1.4 0 2.7-.2 4-.1l3.8.1h.3l.1.2V35.6c.2 1 0 2 0 3v5.2zM5.4 40c-.2 0-.3 0-.3-.2-.1-.7 0-2.6 0-3.2L5 35.3v-1l.4-.3H8v6H5.4zm22.5-12v-.2a2 2 0 0 0-2-1.8H9.7a2 2 0 0 0-1 .3c-.6.3-.7 1-.7 1.6v.5c0 .1 0 .2-.2.2-.3.3-.8.4-1.1.4-1.6 0-3.4.2-4.6 1.2-1.1.8-1.8 2-2 3.4-.2 1.3 0 2.6 0 3.8 0 .7-.2 1.5 0 2.2.2 1.1.6 2.2 1.2 3.1l.4.5c.5.6 1.2 1.1 2 1.3.5.2 1 .2 1.5.2h2.5c.1 1.8 1 3.5 2.5 4.4 1.5.9 3.3 1 5 .9 4 0 12.2.6 12.6-4l.1-1.3V28z"/><rect width="13" height="4" x="4" y="15" fill="#BE1E2D" rx="2"/><rect width="13" height="4" x="11" y="10" fill="#BE1E2D" rx="2"/><rect width="10" height="4" x="13" y="20" fill="#BE1E2D" rx="2"/><path fill="#303030" d="M5 48.9h138.1c5.3 0 7.9.2 7.6.3-.3.2-3.3.3-9.2.5 3.5.4 5 .6 4.5.7-.2.1-2.2.3-6 .5H5.3c-1.4 0-.2-.2 3.7-.7a25 25 0 0 1-4.8-.5c-.3-.1.6-.3 2.7-.4C1 49 .5 48.9 5 48.9z"/></g></svg>